<svg width="1690" height="995" viewBox="0 0 1690 995" fill="none" xmlns="http://www.w3.org/2000/svg">
<path d="M755 586.536V576.936C755 574.547 755.101 572.234 755.305 570H707V555.212L726.276 553.175L726.314 553.171L726.353 553.168C727.912 553.033 728.912 552.86 729.49 552.715C729.518 552.683 729.552 552.647 729.587 552.603C729.785 552.351 730.046 551.941 730.34 551.312L730.38 551.228L730.423 551.145C731.204 549.658 732.278 546.835 733.628 542.434L733.645 542.378L733.663 542.322L790.685 374H814.725L846.977 468.228V400.395C846.977 397.207 846.912 394.754 846.79 392.998C846.737 392.233 846.674 391.644 846.612 391.209C846.227 391.082 845.631 390.939 844.763 390.821L826.848 389.099V374H958.559V378H830.848V385.465L845.226 386.847C848.014 387.215 849.669 387.953 850.192 389.059C850.715 390.164 850.977 393.944 850.977 400.395V492.268L811.866 378H793.553L737.452 543.605L736.952 545.204C735.808 548.792 734.812 551.393 733.964 553.006C733.189 554.665 732.317 555.77 731.348 556.323C730.379 556.692 728.828 556.969 726.696 557.153L711 558.812V566H759.845C759.282 569.381 759 573.026 759 576.936V586.536L759.008 587.696C759.178 599.605 761.992 609.032 767.448 615.976C772.987 622.837 780.928 626.375 791.271 626.59L792.28 626.6H793.048C796.205 635.133 800.387 641.021 805.592 644.264C810.797 647.592 816.728 649.256 823.384 649.256L821.592 637.864C815.512 637.864 810.632 637.152 806.952 635.727L806.232 635.432C802.478 633.81 799.619 630.738 797.656 626.216C806.616 625.021 813.485 620.968 818.264 614.056C822.976 607.277 825.405 598.457 825.553 587.594L825.56 586.536V576.936C825.56 573.026 825.27 569.381 824.69 566H965.687C984.696 566 998.953 561.669 1008.46 553.006C1018.15 544.343 1023 533.284 1023 519.829V512.364C1023 501.294 1019.52 492.04 1012.56 484.603L1011.88 483.889C1004.47 476.332 994.105 471.447 980.799 469.235C991.444 466.471 999.714 461.678 1005.61 454.858C1011.5 448.039 1014.45 439.837 1014.45 430.253V422.788C1014.45 410.111 1010.07 399.682 1001.33 391.502L1000.47 390.718C991.45 382.504 978.056 378.269 960.291 378.013L958.559 378V374C977.696 374 992.799 378.343 1003.13 387.73L1003.61 388.158C1013.51 397.194 1018.45 408.846 1018.45 422.788V430.253C1018.45 440.732 1015.2 449.88 1008.63 457.475C1004.72 462.001 999.909 465.663 994.26 468.501C1002.39 471.337 1009.26 475.503 1014.74 481.087C1022.94 489.454 1027 499.981 1027 512.364V519.829C1027 534.364 1021.71 546.513 1011.15 555.961L1011.15 555.962C1000.63 565.556 985.225 570 965.687 570H829.246C829.456 572.234 829.56 574.547 829.56 576.936V586.536C829.56 598.431 827.011 608.474 821.554 616.33C817.192 622.64 811.277 626.842 804.001 628.963C805.14 630.247 806.417 631.155 807.817 631.76C810.864 633.075 815.368 633.864 821.592 633.864H825.012L828.062 653.256H823.384C816.042 653.256 809.366 651.413 803.477 647.658C797.843 644.148 793.538 638.27 790.31 630.561C779.426 630.144 770.587 626.232 764.336 618.488L764.303 618.447C757.945 610.355 755 599.566 755 586.536ZM809.4 592.936V570.536C809.4 560.091 807.6 553.721 804.912 550.394L804.889 550.364C802.216 546.992 798.239 545.096 792.28 545.096C786.216 545.096 782.206 547.004 779.543 550.364C776.918 553.7 775.16 560.086 775.16 570.536V592.936C775.16 603.368 776.912 609.821 779.562 613.258C782.224 616.604 786.23 618.504 792.28 618.504V622.504L791.629 622.497C785.169 622.365 780.209 620.245 776.749 616.138L776.408 615.72C773.019 611.338 771.271 604.074 771.165 593.927L771.16 592.936V570.536C771.16 559.869 772.91 552.317 776.408 547.88C779.992 543.357 785.283 541.096 792.28 541.096L792.923 541.103C799.518 541.239 804.552 543.498 808.024 547.88C811.608 552.317 813.4 559.87 813.4 570.536V592.936L813.395 593.927C813.286 604.074 811.496 611.338 808.024 615.72L807.684 616.138C804.111 620.382 798.976 622.504 792.28 622.504V618.504C798.24 618.504 802.216 616.608 804.889 613.235C807.604 609.808 809.4 603.369 809.4 592.936ZM830.76 508.218L842.678 543.605C844.809 549.872 845.682 553.651 845.294 554.941C845.1 556.047 843.453 556.785 840.353 557.153L824.365 558.812V564.278C823.012 557.721 820.51 552.212 816.856 547.752C811.318 540.808 803.456 537.228 793.272 537.011L792.28 537C781.443 537 773.166 540.584 767.448 547.752L766.929 548.424C764.755 551.312 763.029 554.619 761.749 558.347L750.242 557.153C747.142 556.785 745.398 556.047 745.01 554.941C744.816 553.651 745.784 549.872 747.916 543.605L759.834 508.218H830.76ZM898.956 400.395C898.956 397.211 898.885 394.767 898.753 393.023C898.697 392.282 898.632 391.712 898.567 391.292C898.099 391.135 897.354 390.96 896.251 390.824L887.718 390.072L879.933 390.821C879.064 390.939 878.468 391.082 878.083 391.209C878.021 391.644 877.959 392.233 877.906 392.998C877.785 394.754 877.72 397.207 877.72 400.395V543.605C877.72 546.793 877.785 549.246 877.906 551.002C877.959 551.767 878.021 552.355 878.083 552.79C878.476 552.92 879.089 553.067 879.989 553.187L883.94 553.642L887.929 554.056L896.217 553.179C897.339 553.042 898.094 552.866 898.567 552.707C898.632 552.287 898.697 551.717 898.753 550.977C898.885 549.233 898.956 546.789 898.956 543.605V400.395ZM992.767 521.488V510.153C992.767 499.297 990.237 491.624 985.773 486.522L985.749 486.495L985.727 486.468C981.563 481.533 975.14 478.765 965.687 478.765H931.763V553.153H965.687V557.153H927.763V474.765H965.687C975.952 474.765 983.651 477.806 988.783 483.889C994.106 489.971 996.767 498.726 996.767 510.153V521.488L996.76 522.594C996.441 545.633 986.083 557.153 965.687 557.153V553.153C975.276 553.153 981.782 550.427 985.981 545.608C990.272 540.685 992.767 532.884 992.767 521.488ZM751.707 544.883L751.703 544.894C750.651 547.987 749.913 550.389 749.466 552.134C749.389 552.432 749.323 552.703 749.267 552.95C749.646 553.029 750.115 553.108 750.688 553.177L759.118 554.052C760.491 550.84 762.217 547.904 764.317 545.263L764.321 545.258C770.94 536.96 780.473 533 792.28 533C803.921 533 813.345 536.964 819.949 545.217C819.954 545.222 819.959 545.229 819.964 545.234C819.97 545.242 819.977 545.25 819.983 545.258C822.278 548.066 824.138 551.208 825.59 554.662L839.905 553.177C840.425 553.114 840.863 553.043 841.228 552.969C841.177 552.7 841.114 552.39 841.033 552.039C840.641 550.341 839.939 547.975 838.891 544.894L838.887 544.883L827.886 512.218H762.708L751.707 544.883ZM827.854 499.37H762.741L795.297 403.159L827.854 499.37ZM768.317 495.37H822.277L795.296 415.638L768.317 495.37ZM984.213 432.465V421.13C984.213 410.188 981.835 402.728 977.774 398.034C973.81 393.451 967.663 390.847 958.559 390.847H931.763V461.918H958.559V465.918H927.763V386.847H958.559C978.328 386.847 988.213 398.275 988.213 421.13V432.465L988.206 433.502C987.902 455.112 978.019 465.918 958.559 465.918V461.918C967.693 461.918 973.85 459.364 977.806 454.901C981.843 450.347 984.213 443.11 984.213 432.465ZM902.956 543.605L902.942 545.899C902.88 550.96 902.6 553.974 902.101 554.941L901.979 555.145C901.299 556.138 899.534 556.808 896.683 557.153L887.931 558.078L883.566 557.625L879.471 557.153C876.683 556.785 875.027 556.047 874.504 554.941C874.046 553.974 873.789 550.96 873.731 545.899L873.72 543.605V400.395C873.72 393.944 873.981 390.164 874.504 389.059C875.027 387.953 876.683 387.215 879.471 386.847L887.702 386.055L896.683 386.847C899.724 387.215 901.53 387.953 902.101 389.059C902.671 390.164 902.956 393.944 902.956 400.395V543.605Z" fill="#FF0000"/>
<path d="M755 586.536V576.936C755 574.547 755.101 572.234 755.305 570H707V555.212L726.276 553.175L726.314 553.171L726.353 553.168C727.912 553.033 728.912 552.86 729.49 552.715C729.518 552.683 729.552 552.647 729.587 552.603C729.785 552.351 730.046 551.941 730.34 551.312L730.38 551.228L730.423 551.145C731.204 549.658 732.278 546.835 733.628 542.434L733.645 542.378L733.663 542.322L790.685 374H814.725L846.977 468.228V400.395C846.977 397.207 846.912 394.754 846.79 392.998C846.737 392.233 846.674 391.644 846.612 391.209C846.227 391.082 845.631 390.939 844.763 390.821L826.848 389.099V374H958.559V378H830.848V385.465L845.226 386.847C848.014 387.215 849.669 387.953 850.192 389.059C850.715 390.164 850.977 393.944 850.977 400.395V492.268L811.866 378H793.553L737.452 543.605L736.952 545.204C735.808 548.792 734.812 551.393 733.964 553.006C733.189 554.665 732.317 555.77 731.348 556.323C730.379 556.692 728.828 556.969 726.696 557.153L711 558.812V566H759.845C759.282 569.381 759 573.026 759 576.936V586.536L759.008 587.696C759.178 599.605 761.992 609.032 767.448 615.976C772.987 622.837 780.928 626.375 791.271 626.59L792.28 626.6H793.048C796.205 635.133 800.387 641.021 805.592 644.264C810.797 647.592 816.728 649.256 823.384 649.256L821.592 637.864C815.512 637.864 810.632 637.152 806.952 635.727L806.232 635.432C802.478 633.81 799.619 630.738 797.656 626.216C806.616 625.021 813.485 620.968 818.264 614.056C822.976 607.277 825.405 598.457 825.553 587.594L825.56 586.536V576.936C825.56 573.026 825.27 569.381 824.69 566H965.687C984.696 566 998.953 561.669 1008.46 553.006C1018.15 544.343 1023 533.284 1023 519.829V512.364C1023 501.294 1019.52 492.04 1012.56 484.603L1011.88 483.889C1004.47 476.332 994.105 471.447 980.799 469.235C991.444 466.471 999.714 461.678 1005.61 454.858C1011.5 448.039 1014.45 439.837 1014.45 430.253V422.788C1014.45 410.111 1010.07 399.682 1001.33 391.502L1000.47 390.718C991.45 382.504 978.056 378.269 960.291 378.013L958.559 378V374C977.696 374 992.799 378.343 1003.13 387.73L1003.61 388.158C1013.51 397.194 1018.45 408.846 1018.45 422.788V430.253C1018.45 440.732 1015.2 449.88 1008.63 457.475C1004.72 462.001 999.909 465.663 994.26 468.501C1002.39 471.337 1009.26 475.503 1014.74 481.087C1022.94 489.454 1027 499.981 1027 512.364V519.829C1027 534.364 1021.71 546.513 1011.15 555.961L1011.15 555.962C1000.63 565.556 985.225 570 965.687 570H829.246C829.456 572.234 829.56 574.547 829.56 576.936V586.536C829.56 598.431 827.011 608.474 821.554 616.33C817.192 622.64 811.277 626.842 804.001 628.963C805.14 630.247 806.417 631.155 807.817 631.76C810.864 633.075 815.368 633.864 821.592 633.864H825.012L828.062 653.256H823.384C816.042 653.256 809.366 651.413 803.477 647.658C797.843 644.148 793.538 638.27 790.31 630.561C779.426 630.144 770.587 626.232 764.336 618.488L764.303 618.447C757.945 610.355 755 599.566 755 586.536ZM809.4 592.936V570.536C809.4 560.091 807.6 553.721 804.912 550.394L804.889 550.364C802.216 546.992 798.239 545.096 792.28 545.096C786.216 545.096 782.206 547.004 779.543 550.364C776.918 553.7 775.16 560.086 775.16 570.536V592.936C775.16 603.368 776.912 609.821 779.562 613.258C782.224 616.604 786.23 618.504 792.28 618.504V622.504L791.629 622.497C785.169 622.365 780.209 620.245 776.749 616.138L776.408 615.72C773.019 611.338 771.271 604.074 771.165 593.927L771.16 592.936V570.536C771.16 559.869 772.91 552.317 776.408 547.88C779.992 543.357 785.283 541.096 792.28 541.096L792.923 541.103C799.518 541.239 804.552 543.498 808.024 547.88C811.608 552.317 813.4 559.87 813.4 570.536V592.936L813.395 593.927C813.286 604.074 811.496 611.338 808.024 615.72L807.684 616.138C804.111 620.382 798.976 622.504 792.28 622.504V618.504C798.24 618.504 802.216 616.608 804.889 613.235C807.604 609.808 809.4 603.369 809.4 592.936ZM830.76 508.218L842.678 543.605C844.809 549.872 845.682 553.651 845.294 554.941C845.1 556.047 843.453 556.785 840.353 557.153L824.365 558.812V564.278C823.012 557.721 820.51 552.212 816.856 547.752C811.318 540.808 803.456 537.228 793.272 537.011L792.28 537C781.443 537 773.166 540.584 767.448 547.752L766.929 548.424C764.755 551.312 763.029 554.619 761.749 558.347L750.242 557.153C747.142 556.785 745.398 556.047 745.01 554.941C744.816 553.651 745.784 549.872 747.916 543.605L759.834 508.218H830.76ZM898.956 400.395C898.956 397.211 898.885 394.767 898.753 393.023C898.697 392.282 898.632 391.712 898.567 391.292C898.099 391.135 897.354 390.96 896.251 390.824L887.718 390.072L879.933 390.821C879.064 390.939 878.468 391.082 878.083 391.209C878.021 391.644 877.959 392.233 877.906 392.998C877.785 394.754 877.72 397.207 877.72 400.395V543.605C877.72 546.793 877.785 549.246 877.906 551.002C877.959 551.767 878.021 552.355 878.083 552.79C878.476 552.92 879.089 553.067 879.989 553.187L883.94 553.642L887.929 554.056L896.217 553.179C897.339 553.042 898.094 552.866 898.567 552.707C898.632 552.287 898.697 551.717 898.753 550.977C898.885 549.233 898.956 546.789 898.956 543.605V400.395ZM992.767 521.488V510.153C992.767 499.297 990.237 491.624 985.773 486.522L985.749 486.495L985.727 486.468C981.563 481.533 975.14 478.765 965.687 478.765H931.763V553.153H965.687V557.153H927.763V474.765H965.687C975.952 474.765 983.651 477.806 988.783 483.889C994.106 489.971 996.767 498.726 996.767 510.153V521.488L996.76 522.594C996.441 545.633 986.083 557.153 965.687 557.153V553.153C975.276 553.153 981.782 550.427 985.981 545.608C990.272 540.685 992.767 532.884 992.767 521.488ZM751.707 544.883L751.703 544.894C750.651 547.987 749.913 550.389 749.466 552.134C749.389 552.432 749.323 552.703 749.267 552.95C749.646 553.029 750.115 553.108 750.688 553.177L759.118 554.052C760.491 550.84 762.217 547.904 764.317 545.263L764.321 545.258C770.94 536.96 780.473 533 792.28 533C803.921 533 813.345 536.964 819.949 545.217C819.954 545.222 819.959 545.229 819.964 545.234C819.97 545.242 819.977 545.25 819.983 545.258C822.278 548.066 824.138 551.208 825.59 554.662L839.905 553.177C840.425 553.114 840.863 553.043 841.228 552.969C841.177 552.7 841.114 552.39 841.033 552.039C840.641 550.341 839.939 547.975 838.891 544.894L838.887 544.883L827.886 512.218H762.708L751.707 544.883ZM827.854 499.37H762.741L795.297 403.159L827.854 499.37ZM768.317 495.37H822.277L795.296 415.638L768.317 495.37ZM984.213 432.465V421.13C984.213 410.188 981.835 402.728 977.774 398.034C973.81 393.451 967.663 390.847 958.559 390.847H931.763V461.918H958.559V465.918H927.763V386.847H958.559C978.328 386.847 988.213 398.275 988.213 421.13V432.465L988.206 433.502C987.902 455.112 978.019 465.918 958.559 465.918V461.918C967.693 461.918 973.85 459.364 977.806 454.901C981.843 450.347 984.213 443.11 984.213 432.465ZM902.956 543.605L902.942 545.899C902.88 550.96 902.6 553.974 902.101 554.941L901.979 555.145C901.299 556.138 899.534 556.808 896.683 557.153L887.931 558.078L883.566 557.625L879.471 557.153C876.683 556.785 875.027 556.047 874.504 554.941C874.046 553.974 873.789 550.96 873.731 545.899L873.72 543.605V400.395C873.72 393.944 873.981 390.164 874.504 389.059C875.027 387.953 876.683 387.215 879.471 386.847L887.702 386.055L896.683 386.847C899.724 387.215 901.53 387.953 902.101 389.059C902.671 390.164 902.956 393.944 902.956 400.395V543.605Z" fill="black" fill-opacity="0.2"/>
<path d="M945.556 494.641C946.331 493.786 947.587 493.786 948.361 494.641L953.904 500.762C956.529 499.341 959.63 498.381 963.166 498.381C969.455 498.381 974.37 501.418 977.675 504.689C979.327 506.325 980.607 508.046 981.488 509.541C981.927 510.287 982.282 511.003 982.535 511.648C982.761 512.223 983 512.974 983 513.712C983 514.451 982.761 515.201 982.535 515.776C982.282 516.421 981.927 517.137 981.488 517.883C980.607 519.378 979.327 521.1 977.675 522.735C977.019 523.384 976.3 524.023 975.52 524.632L979.215 528.713C979.99 529.569 979.99 530.956 979.215 531.811C978.441 532.666 977.185 532.666 976.41 531.811L945.556 497.739C944.781 496.884 944.781 495.497 945.556 494.641ZM947.484 495.61C947.194 495.289 946.723 495.289 946.433 495.61C946.142 495.93 946.142 496.45 946.433 496.771L977.287 530.843C977.568 531.154 978.019 531.163 978.311 530.872L978.339 530.843C978.62 530.532 978.629 530.034 978.365 529.712L978.339 529.681L973.603 524.451L974.805 523.514C975.544 522.937 976.226 522.331 976.847 521.716L977.138 521.424C978.472 520.056 979.529 518.646 980.29 517.401L980.448 517.137C980.859 516.44 981.178 515.792 981.398 515.232L981.473 515.033C981.642 514.567 981.76 514.105 981.76 513.712C981.76 513.263 981.606 512.724 981.398 512.192C981.206 511.702 980.937 511.144 980.598 510.546L980.448 510.287C979.627 508.892 978.418 507.263 976.847 505.708C973.706 502.599 969.074 499.749 963.166 499.749C959.84 499.749 956.924 500.651 954.45 501.992L953.654 502.423L947.484 495.61ZM963.166 501.392C968.617 501.392 972.91 504.017 975.855 506.932C977.327 508.389 978.451 509.908 979.201 511.183C979.577 511.82 979.853 512.387 980.033 512.845C980.106 513.031 980.154 513.177 980.187 513.287L980.312 513.712L980.187 514.137C980.154 514.247 980.106 514.393 980.033 514.579C979.853 515.037 979.577 515.604 979.201 516.242C978.451 517.516 977.327 519.035 975.855 520.492C975.103 521.236 974.266 521.96 973.344 522.626L972.501 523.235L966.897 517.046L967.328 516.151C967.678 515.425 967.877 514.596 967.877 513.712C967.877 510.839 965.768 508.51 963.166 508.51C962.365 508.51 961.615 508.73 960.957 509.116L960.147 509.592L954.698 503.575L956.451 502.807C958.441 501.936 960.687 501.392 963.166 501.392ZM963.166 502.761C960.855 502.761 958.763 503.268 956.908 504.08L960.375 507.908C961.207 507.419 962.157 507.141 963.166 507.141C966.452 507.141 969.116 510.083 969.116 513.712C969.116 514.826 968.865 515.875 968.422 516.794L972.665 521.48C973.531 520.855 974.319 520.174 975.027 519.473C976.418 518.097 977.47 516.67 978.162 515.495C978.509 514.907 978.749 514.408 978.895 514.035C978.953 513.887 978.988 513.781 979.008 513.712C978.988 513.643 978.953 513.537 978.895 513.389C978.749 513.016 978.509 512.517 978.162 511.929C977.47 510.754 976.418 509.327 975.027 507.951C972.247 505.199 968.236 502.761 963.166 502.761Z" fill="#C90000"/>
<path d="M979.444 532.359C978.669 533.214 977.413 533.214 976.639 532.359L971.096 526.238C968.471 527.659 965.37 528.619 961.834 528.619C955.545 528.619 950.63 525.582 947.325 522.311C945.673 520.675 944.393 518.954 943.512 517.459C943.073 516.713 942.718 515.997 942.465 515.352C942.239 514.777 942 514.026 942 513.288C942 512.549 942.239 511.799 942.465 511.224C942.718 510.579 943.073 509.863 943.512 509.117C944.393 507.622 945.673 505.9 947.325 504.265C947.981 503.616 948.7 502.977 949.48 502.368L945.785 498.287C945.01 497.431 945.01 496.044 945.785 495.189C946.559 494.334 947.815 494.334 948.59 495.189L979.444 529.261C980.219 530.116 980.219 531.503 979.444 532.359ZM977.516 531.39C977.806 531.711 978.277 531.711 978.567 531.39C978.858 531.07 978.858 530.55 978.567 530.229L947.713 496.157C947.432 495.846 946.981 495.837 946.689 496.128L946.661 496.157C946.38 496.468 946.371 496.966 946.635 497.288L946.661 497.319L951.397 502.549L950.195 503.486C949.456 504.063 948.774 504.669 948.153 505.284L947.862 505.576C946.528 506.944 945.471 508.354 944.71 509.599L944.552 509.863C944.141 510.56 943.822 511.208 943.602 511.768L943.527 511.967C943.358 512.433 943.24 512.895 943.24 513.288C943.24 513.737 943.394 514.276 943.602 514.808C943.794 515.298 944.063 515.856 944.402 516.454L944.552 516.713C945.373 518.108 946.582 519.737 948.153 521.292C951.294 524.401 955.926 527.251 961.834 527.251C965.16 527.251 968.076 526.349 970.55 525.008L971.346 524.577L977.516 531.39ZM961.834 525.608C956.383 525.608 952.09 522.983 949.145 520.068C947.673 518.611 946.549 517.092 945.799 515.817C945.423 515.18 945.147 514.613 944.967 514.155C944.894 513.969 944.846 513.823 944.813 513.713L944.688 513.288L944.813 512.863C944.846 512.753 944.894 512.607 944.967 512.421C945.147 511.963 945.423 511.396 945.799 510.758C946.549 509.484 947.673 507.965 949.145 506.508C949.897 505.764 950.734 505.04 951.656 504.374L952.499 503.765L958.103 509.954L957.672 510.849C957.322 511.575 957.123 512.404 957.123 513.288C957.123 516.161 959.232 518.49 961.834 518.49C962.635 518.49 963.385 518.27 964.043 517.884L964.853 517.408L970.302 523.425L968.549 524.193C966.559 525.064 964.313 525.608 961.834 525.608ZM961.834 524.239C964.145 524.239 966.237 523.732 968.092 522.92L964.625 519.092C963.793 519.581 962.843 519.859 961.834 519.859C958.548 519.859 955.884 516.917 955.884 513.288C955.884 512.174 956.135 511.125 956.578 510.206L952.335 505.52C951.469 506.145 950.681 506.826 949.973 507.527C948.582 508.903 947.53 510.33 946.838 511.505C946.491 512.093 946.251 512.592 946.105 512.965C946.047 513.113 946.012 513.219 945.992 513.288C946.012 513.357 946.047 513.463 946.105 513.611C946.251 513.984 946.491 514.483 946.838 515.071C947.53 516.246 948.582 517.673 949.973 519.049C952.753 521.801 956.764 524.239 961.834 524.239Z" fill="#C90000"/>
<path d="M958.006 410C974.498 410 976.707 411.602 976.879 428.536C977.113 429.845 976.945 430.847 976.891 431.109V431.176H976.876C976.876 436.05 972.649 440 967.434 440C965.021 440 962.819 439.154 961.15 437.762C960.266 437.026 959.183 436.471 957.999 436.471C956.815 436.471 955.731 437.026 954.848 437.762C953.179 439.154 950.977 440 948.564 440C943.349 440 939.121 436.05 939.121 431.176C939.121 431.176 938.84 430.039 939.134 428.479C939.31 411.598 941.533 410 958.006 410ZM958.006 411.103C953.886 411.103 950.751 411.205 948.336 411.6C945.935 411.993 944.379 412.656 943.301 413.682C942.217 414.714 941.472 416.249 941.002 418.667C940.531 421.091 940.358 424.274 940.314 428.49L940.313 428.581L940.296 428.671C940.169 429.347 940.167 429.931 940.195 430.341C940.21 430.545 940.231 430.703 940.248 430.805C940.257 430.856 940.264 430.893 940.268 430.914C940.27 430.921 940.271 430.926 940.272 430.93L940.272 430.932C940.272 430.933 940.273 430.934 940.273 430.934L940.302 431.051V431.176C940.302 435.441 944.001 438.897 948.564 438.897C950.676 438.897 952.601 438.158 954.062 436.939C955.062 436.105 956.415 435.368 957.999 435.368C959.583 435.368 960.935 436.105 961.935 436.939C963.397 438.158 965.321 438.897 967.434 438.897C971.997 438.897 975.696 435.441 975.696 431.176V430.074H975.817C975.827 429.706 975.809 429.241 975.715 428.717L975.7 428.632L975.699 428.546C975.656 424.317 975.485 421.123 975.015 418.691C974.546 416.265 973.803 414.724 972.719 413.689C971.641 412.66 970.086 411.995 967.684 411.601C965.268 411.205 962.131 411.103 958.006 411.103ZM958.01 422.132C968.449 422.132 972.096 424.879 973.413 426.767C973.837 427.374 974.088 427.982 974.232 428.538L974.259 428.649L974.285 428.762L974.286 428.878C974.291 429.467 974.293 430.078 974.294 430.712L974.294 430.839L974.28 430.898V431.176C974.28 434.71 971.215 437.574 967.434 437.574C965.738 437.574 964.19 437 962.993 436.045L962.878 435.952C961.737 435 960.062 434.044 957.999 434.044C956 434.044 954.366 434.941 953.228 435.862L953.119 435.952C951.907 436.963 950.315 437.574 948.564 437.574C944.783 437.574 941.718 434.71 941.718 431.176C941.718 430.362 941.72 429.583 941.726 428.839L941.727 428.717L941.757 428.598C941.899 428.027 942.154 427.397 942.593 426.769C943.916 424.879 947.571 422.132 958.01 422.132ZM958.01 423.235C947.769 423.235 944.595 425.924 943.581 427.373C943.226 427.88 943.021 428.387 942.907 428.847C942.901 429.588 942.898 430.364 942.898 431.176C942.898 434.1 945.435 436.471 948.564 436.471C950.014 436.471 951.329 435.966 952.333 435.129C953.59 434.081 955.535 432.941 957.999 432.941C960.463 432.941 962.407 434.081 963.664 435.129C964.668 435.966 965.984 436.471 967.434 436.471C970.563 436.471 973.099 434.1 973.099 431.176V430.771L973.114 430.713C973.113 430.082 973.111 429.473 973.106 428.886C972.995 428.414 972.789 427.892 972.425 427.369C971.416 425.924 968.251 423.235 958.01 423.235ZM958.006 412.426C962.252 412.426 965.35 412.511 967.77 412.961C969.947 413.358 971.115 413.974 971.873 414.783L971.945 414.861C972.76 415.775 973.408 417.274 973.802 420.001C973.929 420.87 974.024 421.811 974.095 422.837L974.254 425.134L972.239 423.811C969.748 422.177 965.436 420.809 958.01 420.809C950.584 420.809 946.269 422.177 943.774 423.812L941.758 425.132L941.918 422.837C941.989 421.812 942.085 420.871 942.212 420.003C942.605 417.275 943.252 415.776 944.067 414.862C944.823 414.014 945.996 413.37 948.243 412.961C950.663 412.511 953.76 412.426 958.006 412.426ZM958.006 413.529C953.746 413.529 950.762 413.618 948.473 414.043C946.377 414.424 945.495 414.984 944.974 415.568C944.369 416.245 943.763 417.498 943.382 420.151C943.259 420.987 943.166 421.902 943.096 422.909C945.861 421.096 950.448 419.706 958.01 419.706C965.572 419.706 970.155 421.096 972.917 422.909C972.848 421.902 972.755 420.987 972.633 420.151C972.249 417.498 971.643 416.245 971.039 415.568C970.517 414.984 969.635 414.424 967.539 414.043C965.25 413.618 962.267 413.529 958.006 413.529Z" fill="#C80000"/>
<path d="M795.5 449C796.742 449 797.75 450.12 797.75 451.5V456.538L793.25 456.548V451.5C793.25 450.12 794.258 449 795.5 449ZM795.5 450.562C795.035 450.562 794.656 450.983 794.656 451.5V454.982L796.344 454.978V451.5C796.344 450.983 795.965 450.562 795.5 450.562Z" fill="#CA0000"/>
<path d="M797.75 486.463V491.5C797.75 492.88 796.742 494 795.5 494C794.258 494 793.25 492.88 793.25 491.5V486.463H797.75ZM794.656 491.5C794.656 492.017 795.035 492.438 795.5 492.438C795.965 492.438 796.344 492.017 796.344 491.5V488.025H794.656V491.5Z" fill="#CA0000"/>
<path d="M793.25 454.048C794.67 453.983 796.33 453.985 797.75 454.037C804.514 454.037 807.958 456.778 808.795 461.51C809.036 462.865 807.99 463.997 806.748 463.997C805.506 464 804.628 462.768 803.935 461.623C803.031 460.128 802.812 459 795.5 459C788.188 459 786.5 459 786.5 464C786.5 469 787.863 469 795.5 469C807.072 469 809 471 809 479C809 486.375 806.131 488.65 797.75 488.962C796.33 489.015 794.67 489.015 793.25 488.962C786.788 488.722 782.992 487 782.171 481.493C781.966 480.13 783.008 479 784.25 479C785.492 479 786.331 480.157 786.669 481.487C787.137 483.327 788.896 484 795.5 484C804.5 484 804.5 482.75 804.5 479.005V478.995C804.5 475.25 804.5 474 795.5 474C783.928 474 782 471.5 782 464C782 457.085 784.869 454.42 793.25 454.048ZM797.703 455.599C796.313 455.548 794.688 455.546 793.308 455.609H793.306C789.167 455.793 786.754 456.545 785.363 457.788C784.075 458.939 783.406 460.762 783.406 464C783.406 467.707 783.911 469.474 785.239 470.55C785.963 471.136 787.055 471.623 788.751 471.953C790.443 472.282 792.641 472.437 795.5 472.437C797.768 472.437 799.524 472.516 800.878 472.704C802.207 472.888 803.295 473.196 804.12 473.768C805.034 474.402 805.51 475.279 805.726 476.266C805.915 477.131 805.906 478.122 805.906 478.995V479.005C805.906 479.878 805.915 480.869 805.726 481.734C805.51 482.721 805.034 483.598 804.12 484.232C803.295 484.804 802.207 485.112 800.878 485.297C799.524 485.484 797.768 485.562 795.5 485.562C792.206 485.562 789.942 485.401 788.416 484.942C787.633 484.707 786.945 484.365 786.396 483.837C785.823 483.285 785.495 482.618 785.315 481.913C785.196 481.443 785.004 481.073 784.801 480.846C784.615 480.639 784.441 480.562 784.25 480.562C784.01 480.562 783.807 480.673 783.684 480.816C783.586 480.93 783.546 481.049 783.552 481.179L783.558 481.235L783.558 481.237C783.905 483.565 784.827 484.941 786.279 485.837C787.836 486.8 790.123 487.283 793.297 487.401C794.685 487.452 796.314 487.452 797.703 487.401C801.877 487.245 804.275 486.592 805.653 485.398C806.911 484.307 807.594 482.5 807.594 479C807.594 475.007 807.076 473.286 805.783 472.28C805.068 471.724 803.982 471.277 802.275 470.981C800.574 470.688 798.369 470.562 795.5 470.562C793.607 470.562 792.042 470.563 790.79 470.482C789.559 470.402 788.463 470.236 787.576 469.808C786.596 469.335 785.91 468.562 785.522 467.459C785.174 466.468 785.094 465.281 785.094 464C785.094 462.694 785.197 461.495 785.586 460.492C786.013 459.391 786.734 458.642 787.712 458.185C788.61 457.765 789.706 457.599 790.926 457.518C792.163 457.437 793.688 457.437 795.5 457.437C799.154 457.437 801.278 457.709 802.632 458.295C803.362 458.611 803.884 459.024 804.298 459.523C804.657 459.956 804.942 460.485 805.102 460.751C805.438 461.306 805.747 461.757 806.064 462.067C806.367 462.363 806.579 462.435 806.745 462.435H806.748C806.989 462.435 807.191 462.323 807.308 462.186C807.412 462.064 807.439 461.945 807.415 461.813V461.811C807.064 459.825 806.197 458.344 804.742 457.318C803.238 456.259 800.983 455.6 797.75 455.6H797.727L797.703 455.599Z" fill="#CA0000"/>
</svg>
